<svg width="230" height="84" viewBox="0 0 230 84" fill="none" xmlns="http://www.w3.org/2000/svg">
<path d="M101.756 15.2969C101.756 15.2969 95.0042 7.96212 98.7725 2.74703C102.541 -2.46806 130.276 -0.998862 129.3 13.637C128.336 28.2729 108.014 15.667 108.014 15.667L101.756 15.2969Z" fill="#1A1A1A"/>
<path d="M65.9903 42.1125C65.9903 42.1125 60.8426 33.5778 54.7863 35.7199C48.7301 37.8732 42.3486 64.9019 56.6705 68.0871C70.9923 71.2722 64.5997 48.2249 64.5997 48.2249L65.9903 42.1125Z" fill="#1A1A1A"/>
<path d="M62.4351 81.8258C59.8108 70.8572 55.605 43.5033 73.7401 27.5103C98.7949 5.43873 121.057 14.1642 134.886 24.7738C148.164 34.9573 161.6 42.8976 152.269 81.6575" fill="white"/>
<path d="M62.4353 83.037C61.8858 83.037 61.3923 82.6669 61.2577 82.1061C58.5661 70.8797 54.3267 43.0098 72.944 26.6131C84.4172 16.4969 96.4288 11.8202 108.609 12.695C117.76 13.3567 126.844 17.1026 135.615 23.8205C136.232 24.3027 136.86 24.7738 137.477 25.2448C140.583 27.6 143.802 30.045 146.606 32.8712C149.78 36.0675 152.09 39.4433 153.683 43.2116C155.578 47.6753 156.52 52.767 156.565 58.756C156.621 65.373 155.589 72.9545 153.425 81.9491C153.268 82.5996 152.617 82.9921 151.967 82.8351C151.316 82.6781 150.924 82.0276 151.081 81.3771C155.073 64.7898 155.197 52.9577 151.451 44.1313C148.165 36.3816 142.254 31.8955 136.007 27.1514C135.379 26.6804 134.762 26.1981 134.134 25.7271C120.34 15.1511 98.7952 7.02005 74.5254 28.4187C56.895 43.9519 60.9998 70.7451 63.5905 81.5453C63.7475 82.1958 63.3438 82.8463 62.6933 83.0033C62.6148 83.0258 62.5251 83.037 62.4353 83.037Z" fill="#1A1A1A"/>
<path d="M106.5 42.2808C106.5 42.2808 112.657 43.2789 116.717 48.5838C119.543 52.2848 128.897 50.9838 129.57 46.5538C130.243 42.1238 125.846 32.602 120.362 30.6057C114.81 28.5982 110.358 28.0599 104.504 32.4226C99.0643 36.4601 104.728 41.6752 106.5 42.2808Z" fill="#1A1A1A"/>
<path d="M89.8116 54.1577C89.8116 54.1577 88.735 60.3037 92.4136 65.8777C94.9819 69.7694 90.6864 78.1696 86.2901 77.3509C81.8825 76.5322 74.3234 69.2647 74.2449 63.4215C74.1664 57.5111 75.1197 53.1259 81.1535 49.0324C86.7499 45.2304 89.8229 52.2848 89.8116 54.1577Z" fill="#1A1A1A"/>
<path d="M139.922 81.6126C141.615 79.6948 139.451 68.0534 138.542 65.7206C137.634 63.3879 129.839 45.5668 139.955 44.1874C139.955 44.1874 143.084 37.3236 151.316 39.5443C151.316 39.5443 156.296 35.7535 161.937 40.3181C161.937 40.3181 174.05 35.7086 173.522 60.1018C173.522 60.1018 174.823 78.2256 176.73 81.8706" fill="#1A1A1A"/>
<path d="M176.741 83.0594C176.304 83.0594 175.889 82.8239 175.665 82.4089C173.713 78.6518 172.468 62.0533 172.334 60.1691C172.334 60.1355 172.334 60.0906 172.334 60.057C172.58 48.337 169.866 43.8958 167.545 42.2359C165.077 40.4751 162.487 41.3948 162.374 41.4397C161.971 41.5967 161.522 41.5182 161.197 41.249C156.397 37.3685 152.236 40.3742 152.068 40.5088C151.765 40.7331 151.395 40.8116 151.025 40.7107C147.997 39.9032 145.406 40.3293 143.32 41.9892C141.772 43.2117 141.077 44.6809 141.077 44.7033C140.908 45.0846 140.55 45.3426 140.146 45.3986C138.609 45.6117 137.533 46.2622 136.882 47.395C135.693 49.4473 135.177 54.1241 139.484 64.7786C139.574 64.9917 139.641 65.1711 139.697 65.3057C140.236 66.6964 141.021 70.4647 141.436 73.6947C141.694 75.6574 141.806 77.3397 141.783 78.6967C141.75 80.5696 141.458 81.7585 140.852 82.4426C140.415 82.9473 139.652 82.9921 139.148 82.5435C138.654 82.1061 138.598 81.3435 139.036 80.8388C139.305 80.4911 139.63 78.5958 139.024 73.8966C138.553 70.3077 137.802 67.1114 137.443 66.1805C137.398 66.0571 137.331 65.8889 137.241 65.687C136.647 64.2178 135.267 60.786 134.392 57.0737C133.26 52.2512 133.394 48.595 134.785 46.1949C135.727 44.5687 137.207 43.5369 139.193 43.1219C139.608 42.4154 140.46 41.1929 141.817 40.1163C143.611 38.6919 146.673 37.2452 151.114 38.2657C151.72 37.9069 152.841 37.3349 154.299 37.0545C156.229 36.6844 159.122 36.7405 162.206 39.006C163.462 38.7144 166.233 38.3891 168.902 40.2733C172.995 43.1556 174.958 49.8175 174.745 60.0906C175.104 65.1038 176.36 78.5397 177.807 81.3323C178.109 81.9267 177.885 82.6557 177.291 82.9585C177.123 83.0146 176.932 83.0594 176.741 83.0594Z" fill="#1A1A1A"/>
<path d="M141.243 55.1123C142.453 54.9142 143.251 53.6337 143.025 52.2522C142.799 50.8707 141.635 49.9113 140.424 50.1094C139.214 50.3075 138.416 51.588 138.642 52.9695C138.868 54.351 140.033 55.3103 141.243 55.1123Z" fill="white"/>
<path d="M147.903 48.9902C149.114 48.7922 149.912 47.5117 149.685 46.1302C149.459 44.7487 148.295 43.7893 147.085 43.9873C145.874 44.1854 145.076 45.4659 145.302 46.8474C145.528 48.2289 146.693 49.1883 147.903 48.9902Z" fill="white"/>
<path d="M156.607 47.5639C157.817 47.3658 158.615 46.0853 158.389 44.7038C158.163 43.3223 156.999 42.3629 155.788 42.561C154.578 42.7591 153.78 44.0396 154.006 45.4211C154.232 46.8026 155.397 47.7619 156.607 47.5639Z" fill="white"/>
<path d="M164.974 51.223C166.184 51.0249 166.982 49.7444 166.756 48.3629C166.53 46.9814 165.365 46.022 164.155 46.2201C162.945 46.4181 162.147 47.6986 162.373 49.0801C162.599 50.4616 163.763 51.421 164.974 51.223Z" fill="white"/>
<path d="M164.472 57.2755C164.853 59.5971 162.374 62.2663 155.612 63.3654C148.849 64.4757 145.652 62.7261 145.271 60.4158C144.89 58.0943 148.467 52.9913 153.772 52.1277C159.077 51.2642 164.09 54.9652 164.472 57.2755Z" fill="white"/>
<path d="M112.803 52.1165C114.395 54.3035 112.679 59.3952 108.294 62.5803C103.909 65.7655 98.537 65.844 96.9557 63.657C95.3743 61.47 97.8641 58.3971 102.07 54.9988C106.668 51.2978 111.21 49.9296 112.803 52.1165Z" fill="#1A1A1A"/>
<path d="M95.8904 74.8386C96.2493 75.0853 96.6306 75.2872 97.0119 75.4779C97.3932 75.6685 97.7858 75.8255 98.1783 75.9601C98.5708 76.0835 98.9746 76.1956 99.3671 76.2629C99.7709 76.3302 100.163 76.3751 100.556 76.3639C101.341 76.3639 102.104 76.2069 102.81 75.9265C103.158 75.7807 103.506 75.6124 103.831 75.4106C104.156 75.2087 104.459 74.9732 104.762 74.7264C105.064 74.4797 105.345 74.2105 105.614 73.9189C105.883 73.6386 106.141 73.3358 106.388 73.0217C106.635 72.7077 106.87 72.3825 107.094 72.046C107.207 71.8778 107.319 71.7095 107.431 71.5413C107.543 71.3731 107.644 71.1937 107.745 71.0254C107.947 70.6777 108.16 70.3188 108.351 69.96C108.541 69.6011 108.732 69.231 108.911 68.8609C109.001 68.6814 109.091 68.4908 109.18 68.3001C109.27 68.1094 109.36 67.9188 109.438 67.7281C109.607 67.3468 109.775 66.9655 109.932 66.5842C110.111 66.158 110.515 65.8776 110.952 65.844H110.964L111.255 65.8215L111.558 65.7879C111.76 65.7655 111.962 65.743 112.164 65.7206C112.567 65.6757 112.982 65.6085 113.386 65.5524C114.205 65.429 115.012 65.2832 115.82 65.115C116.224 65.0365 116.616 64.9355 117.02 64.8458C117.412 64.7449 117.816 64.6439 118.198 64.5318C118.59 64.4196 118.971 64.2963 119.353 64.1617C119.734 64.0271 120.115 63.8925 120.485 63.7355C120.856 63.5785 121.214 63.4215 121.573 63.2308C121.921 63.0514 122.269 62.8495 122.594 62.6364C122.919 62.4233 123.222 62.1878 123.502 61.9299C123.783 61.6719 124.041 61.3915 124.254 61.0887C124.478 60.7859 124.657 60.4494 124.792 60.0906C124.927 59.7317 125.016 59.3503 125.05 58.9466C125.084 58.5541 125.084 58.1391 125.028 57.7241C124.983 57.3092 124.893 56.8942 124.792 56.4792C125.016 56.8381 125.218 57.2307 125.386 57.6344C125.543 58.0494 125.667 58.4755 125.723 58.9354C125.79 59.384 125.779 59.855 125.701 60.3261C125.622 60.7859 125.476 61.2457 125.274 61.6831C125.072 62.1093 124.814 62.513 124.523 62.8831C124.231 63.2532 123.906 63.5897 123.558 63.8925C123.211 64.2066 122.841 64.4757 122.471 64.7337C122.089 64.9916 121.708 65.2271 121.304 65.4402C120.912 65.6533 120.508 65.8552 120.093 66.0346C119.689 66.2141 119.274 66.3823 118.859 66.5393C118.444 66.6963 118.029 66.8421 117.603 66.9655C117.177 67.1001 116.762 67.2122 116.336 67.3244C115.91 67.4365 115.483 67.5375 115.057 67.6272C114.631 67.7169 114.205 67.8066 113.767 67.8851C113.341 67.9637 112.904 68.0309 112.467 68.087C112.253 68.1207 112.029 68.1431 111.816 68.1655L111.491 68.1992L111.143 68.2328L112.164 67.4926C111.995 67.8964 111.816 68.3113 111.637 68.7151C111.547 68.9169 111.446 69.1188 111.356 69.3207C111.255 69.5226 111.166 69.7244 111.053 69.9151C110.852 70.3076 110.627 70.7002 110.403 71.0927C110.179 71.4852 109.943 71.8666 109.696 72.2479C109.573 72.4385 109.45 72.6292 109.315 72.8086C109.18 72.9881 109.046 73.1787 108.911 73.3582C108.642 73.7283 108.339 74.076 108.025 74.4124C107.711 74.7489 107.386 75.0853 107.027 75.3882C106.679 75.691 106.309 75.9938 105.917 76.2517C105.524 76.5209 105.109 76.7564 104.672 76.9583C104.235 77.1602 103.786 77.3284 103.315 77.4405C102.844 77.5527 102.373 77.6312 101.891 77.6424C101.408 77.6536 100.937 77.62 100.477 77.5415C100.018 77.463 99.569 77.3284 99.1428 77.1601C98.7166 76.9919 98.3129 76.79 97.9203 76.5545C97.539 76.319 97.1801 76.0611 96.8437 75.7695C96.4736 75.5003 96.1595 75.1863 95.8904 74.8386Z" fill="#1A1A1A"/>
<path d="M110.392 67.8179C110.01 67.8179 109.64 67.6385 109.405 67.302C109.281 67.1225 106.388 62.9617 105.704 60.2252C105.536 59.5747 105.928 58.9242 106.579 58.756C107.229 58.5878 107.879 58.9803 108.048 59.6308C108.53 61.5486 110.627 64.8234 111.39 65.9225C111.771 66.4721 111.637 67.2235 111.087 67.6048C110.874 67.7506 110.627 67.8179 110.392 67.8179Z" fill="#1A1A1A"/>
<path d="M227.782 83.0033H0.112151C0.728989 81.9491 0 81.4107 0 80.7378C0 80.0761 0.740207 79.5266 1.64864 79.5266H227.266C228.174 79.5266 228.914 80.0649 228.914 80.7378C228.903 81.3995 230.227 81.9379 227.782 83.0033Z" fill="#1A1A1A"/>
</svg>
